<?xml version="1.0" encoding="UTF-8"?>
<svg xmlns="http://www.w3.org/2000/svg" xmlns:xlink="http://www.w3.org/1999/xlink" viewBox="0 0 50 50" width="50px" height="50px">
<defs>
<linearGradient id="linear0" gradientUnits="userSpaceOnUse" x1="45.6875" y1="124.296883" x2="45.6875" y2="147.823257" gradientTransform="matrix(0.290698,0,0,0.290698,0,0)">
<stop offset="0" style="stop-color:rgb(100%,91.37255%,90.588236%);stop-opacity:1;"/>
<stop offset="1" style="stop-color:rgb(86.666667%,43.137255%,58.823532%);stop-opacity:1;"/>
</linearGradient>
<linearGradient id="linear1" gradientUnits="userSpaceOnUse" x1="86" y1="14.33244" x2="86" y2="156.796814" gradientTransform="matrix(0.290698,0,0,0.290698,0,0)">
<stop offset="0" style="stop-color:rgb(100%,50.588238%,46.666667%);stop-opacity:1;"/>
<stop offset="1" style="stop-color:rgb(69.411767%,16.470589%,35.686275%);stop-opacity:1;"/>
</linearGradient>
<linearGradient id="linear2" gradientUnits="userSpaceOnUse" x1="75.25" y1="14.33244" x2="75.25" y2="156.796814" gradientTransform="matrix(0.290698,0,0,0.290698,0,0)">
<stop offset="0" style="stop-color:rgb(100%,50.588238%,46.666667%);stop-opacity:1;"/>
<stop offset="1" style="stop-color:rgb(69.411767%,16.470589%,35.686275%);stop-opacity:1;"/>
</linearGradient>
<linearGradient id="linear3" gradientUnits="userSpaceOnUse" x1="75.25" y1="14.33244" x2="75.25" y2="156.796814" gradientTransform="matrix(0.290698,0,0,0.290698,0,0)">
<stop offset="0" style="stop-color:rgb(100%,50.588238%,46.666667%);stop-opacity:1;"/>
<stop offset="1" style="stop-color:rgb(69.411767%,16.470589%,35.686275%);stop-opacity:1;"/>
</linearGradient>
<linearGradient id="linear4" gradientUnits="userSpaceOnUse" x1="86" y1="14.33244" x2="86" y2="156.796814" gradientTransform="matrix(0.290698,0,0,0.290698,0,0)">
<stop offset="0" style="stop-color:rgb(100%,50.588238%,46.666667%);stop-opacity:1;"/>
<stop offset="1" style="stop-color:rgb(69.411767%,16.470589%,35.686275%);stop-opacity:1;"/>
</linearGradient>
<linearGradient id="linear5" gradientUnits="userSpaceOnUse" x1="86" y1="14.33244" x2="86" y2="156.796814" gradientTransform="matrix(0.290698,0,0,0.290698,0,0)">
<stop offset="0" style="stop-color:rgb(100%,50.588238%,46.666667%);stop-opacity:1;"/>
<stop offset="1" style="stop-color:rgb(69.411767%,16.470589%,35.686275%);stop-opacity:1;"/>
</linearGradient>
</defs>
<g id="surface135452157">
<path style=" stroke:none;fill-rule:nonzero;fill:url(#linear0);" d="M 10.15625 35.9375 L 10.15625 40.625 C 10.15625 41.488281 10.855469 42.1875 11.71875 42.1875 L 16.40625 42.1875 Z M 10.15625 35.9375 "/>
<path style=" stroke:none;fill-rule:nonzero;fill:url(#linear1);" d="M 40.625 28.90625 L 40.625 9.375 C 40.625 8.359375 39.96875 7.5 39.0625 7.175781 L 39.0625 7.03125 C 39.0625 5.738281 38.011719 4.6875 36.71875 4.6875 L 13.28125 4.6875 C 11.988281 4.6875 10.9375 5.738281 10.9375 7.03125 L 10.9375 7.175781 C 10.03125 7.5 9.375 8.359375 9.375 9.375 L 9.375 18.75 C 8.082031 18.75 7.03125 19.800781 7.03125 21.09375 L 7.03125 41.40625 C 7.03125 43.558594 8.785156 45.3125 10.9375 45.3125 L 39.84375 45.3125 C 39.898438 45.3125 39.953125 45.3125 40.011719 45.308594 C 41.667969 45.222656 42.96875 43.792969 42.96875 42.054688 L 42.96875 31.25 C 42.96875 29.957031 41.917969 28.90625 40.625 28.90625 Z M 34.375 8.59375 L 38.28125 8.59375 C 38.710938 8.59375 39.0625 8.945312 39.0625 9.375 L 39.0625 14.0625 L 35.15625 14.0625 C 34.726562 14.0625 34.375 13.710938 34.375 13.28125 Z M 13.28125 6.25 L 36.71875 6.25 C 37.148438 6.25 37.5 6.601562 37.5 7.03125 L 12.5 7.03125 C 12.5 6.601562 12.851562 6.25 13.28125 6.25 Z M 8.59375 41.40625 L 8.59375 21.09375 C 8.59375 20.664062 8.945312 20.3125 9.375 20.3125 L 15.570312 20.3125 C 15.832031 20.3125 16.074219 20.441406 16.21875 20.660156 L 18.417969 23.953125 C 18.851562 24.609375 19.582031 25 20.371094 25 L 35.9375 25 C 36.367188 25 36.71875 25.351562 36.71875 25.78125 L 36.71875 42.1875 C 36.71875 42.742188 36.882812 43.277344 37.15625 43.75 L 10.9375 43.75 C 9.644531 43.75 8.59375 42.699219 8.59375 41.40625 Z M 41.40625 42.054688 C 41.40625 42.945312 40.742188 43.703125 39.929688 43.746094 C 39.496094 43.765625 39.082031 43.617188 38.769531 43.320312 C 38.453125 43.023438 38.28125 42.621094 38.28125 42.1875 L 38.28125 25.78125 C 38.28125 24.488281 37.230469 23.4375 35.9375 23.4375 L 20.371094 23.4375 C 20.105469 23.4375 19.863281 23.308594 19.714844 23.089844 L 17.519531 19.792969 C 17.085938 19.140625 16.355469 18.75 15.570312 18.75 L 10.9375 18.75 L 10.9375 9.375 C 10.9375 8.945312 11.289062 8.59375 11.71875 8.59375 L 32.8125 8.59375 L 32.8125 13.28125 C 32.8125 14.574219 33.863281 15.625 35.15625 15.625 L 39.0625 15.625 L 39.0625 42.1875 C 39.0625 42.621094 39.410156 42.96875 39.84375 42.96875 C 40.277344 42.96875 40.625 42.621094 40.625 42.1875 L 40.625 30.46875 C 41.054688 30.46875 41.40625 30.820312 41.40625 31.25 Z M 41.40625 42.054688 "/>
<path style=" stroke:none;fill-rule:nonzero;fill:url(#linear2);" d="M 14.0625 10.9375 L 29.6875 10.9375 L 29.6875 12.5 L 14.0625 12.5 Z M 14.0625 10.9375 "/>
<path style=" stroke:none;fill-rule:nonzero;fill:url(#linear3);" d="M 14.0625 14.0625 L 29.6875 14.0625 L 29.6875 15.625 L 14.0625 15.625 Z M 14.0625 14.0625 "/>
<path style=" stroke:none;fill-rule:nonzero;fill:url(#linear4);" d="M 20.3125 17.1875 L 29.6875 17.1875 L 29.6875 18.75 L 20.3125 18.75 Z M 20.3125 17.1875 "/>
<path style=" stroke:none;fill-rule:nonzero;fill:url(#linear5);" d="M 20.3125 20.3125 L 29.6875 20.3125 L 29.6875 21.875 L 20.3125 21.875 Z M 20.3125 20.3125 "/>
</g>
</svg>
